<?xml version="1.0" encoding="utf-8"?>
<!-- Generator: Adobe Illustrator 22.0.1, SVG Export Plug-In . SVG Version: 6.00 Build 0)  -->
<svg version="1.1" id="Layer_1" xmlns="http://www.w3.org/2000/svg" xmlns:xlink="http://www.w3.org/1999/xlink" x="0px" y="0px"
	 viewBox="0 0 400 400" style="enable-background:new 0 0 400 400;" xml:space="preserve">
<style type="text/css">
	.st0{fill:none;stroke:#232323;stroke-width:0.737;stroke-linecap:square;stroke-linejoin:bevel;stroke-miterlimit:10;}
</style>
<polygon class="st0" points="213.4,334.9 213.4,334.9 212.6,335.6 211.9,336.3 211.4,336.7 210.8,337.1 209.6,337.9 208.5,338.6 
	207.1,339.7 205.1,341 204.2,341.8 203.1,342.7 202.3,343.7 200.9,345.6 199.9,347.2 199.3,347.7 198.3,348.6 197.3,349.6 
	196.6,350.4 196.9,351.1 196.7,352 197.1,352.7 197.1,352.7 195.2,353.6 193.6,354.4 191.9,355.2 188.6,356.5 186.9,358.1 
	185,359.1 181.8,360.1 180.5,360.4 177,361.1 176.6,361.2 172.9,360.7 172.9,360.7 172.8,360.7 170.9,360.6 170.9,360.6 
	170.9,360.6 169.5,360.9 167.6,360.8 167.5,360.8 161.1,361.8 160.1,362.1 157.9,362.3 157.9,362.3 157.4,362 157.3,361.6 
	157.1,357.5 155.9,351 155.9,350.6 155.5,347.5 155.5,347.2 155.4,346.7 155.3,342.6 155.3,342.6 155.6,342.3 157.9,340.3 
	158.4,339.9 159.4,338.9 160.5,338.3 161.5,337.7 163,337.1 162.9,336.5 164,334.9 164,334.8 164,333.7 164,333.5 163.8,331.8 
	163.6,330.7 163.6,329.2 163.7,327.9 164.1,326.7 163.9,324.5 163.9,324.5 164.2,324.2 164.5,322.4 165.5,321 166.1,319.7 
	166.7,318.8 167.7,317.8 168.6,316.3 169.2,315.3 169.3,315.1 169.5,314.7 169.7,314.2 169.8,314.1 170.1,313.5 170.6,312.7 
	171.2,311.5 171.7,310.6 172,310.5 172.5,310 172.8,309.8 173.1,309.6 173.1,309.6 173.4,308.4 174.3,307.5 175,306.6 175.7,305.8 
	176.1,305 175.8,303.9 175.3,302.7 175.1,302.1 175,302 175,302 175,302 170.3,302.8 169.4,302.9 168.3,302.9 168,302.8 
	165.7,302.4 164.8,302.4 163.7,302.6 162.7,302.9 162.7,302.9 162.7,302.9 162.7,302.9 159.6,303 154.7,303.2 154.5,303.2 
	152,303.4 146.7,303.8 145.5,304 144.2,304.4 144.2,304.4 144.2,304.4 143.8,304.4 141.5,304.2 141.1,304.2 140.2,304.4 
	140.2,304.4 138.5,303.2 137.4,302.4 136.4,302.2 134.5,301.7 134.5,301.7 134.5,301.6 134.5,301.4 134.5,301.4 134.5,301.1 
	134.5,301 134.5,301 134.5,301 134.6,300.8 134.9,300.2 134.9,300.1 134.9,300 134.9,299.9 134.9,299.8 134.9,299.8 134.8,299.7 
	134.8,299.7 134.7,299.7 134.6,299.7 134.4,299.7 134.4,299.7 134.2,299.7 134.2,299.7 134.2,299.7 134.1,299.7 134.1,299.6 
	134.1,299.5 134.1,299.4 134.1,299.2 134.1,299.2 134,297.9 133.9,296.8 133.8,295.8 133.5,295.4 133.5,295.3 132.7,294 132,292 
	131.1,290.1 130.5,288.4 129.8,286.6 129.1,284.8 128.4,283.6 128.7,282.7 128.7,281.9 128.7,281.7 128.3,280.4 128.2,280.3 
	127.7,279.3 127.2,278.2 126.3,276.7 126.3,276.6 125.8,276 125.5,275.4 125.4,275.3 124.8,274.2 124.8,274.2 125.3,272.7 
	125.3,272.7 124.9,271.6 124.8,271 124.7,270.7 124.3,269.1 124.3,269 124.1,268.3 124,268.1 123.9,267.4 123.8,266.2 123.8,266.2 
	123.8,266.2 122.7,265.9 121.8,265.3 121,264.7 120.3,263.8 120.1,263.3 119.8,262.7 117.9,263.4 116.5,263.9 116.4,262.7 
	116.8,261.7 117.1,260.9 116.8,260 116.1,259.2 114.9,258.8 114.4,258.3 114.2,258.2 113.6,257.8 113,258 113,258 111.9,256.4 
	111,255.7 108.8,254.4 108.3,254 108.1,253.7 107.4,252.9 106.8,251.8 106.1,251.2 105.8,250.8 105.3,250.2 105.3,250.2 
	105.3,250.2 106.6,248.6 107,248.2 107.7,247.6 108.1,247.2 108.4,247 108.9,246.5 109.4,246 109.4,246 109.1,245.1 108.7,244.6 
	108.6,244.5 108,244 107.6,243.5 107.7,243.3 107.8,242 107.9,241.8 108.4,240.3 109,239.2 109.2,238.9 110.1,238 110.7,236.9 
	110.8,235.8 110.1,235.2 108.4,234.9 107.6,234.8 106.8,234.7 106.5,233.9 106.6,232.1 106.5,231.3 106.7,229.6 106.7,229.6 
	106.5,228.1 106.4,227.1 106.7,225.5 106.9,224.6 106.9,224.6 105.7,224.6 104.9,224.6 104.4,224.6 104.4,224.7 103.3,224.7 
	103.1,225 102.9,225.1 102.7,225.1 102.5,225.2 102.1,225.1 102.1,224.9 102.1,224.9 102.1,224.8 102.1,224.6 102.1,224.6 
	102.1,224.6 102.1,224.6 101.8,223.6 100.5,219.1 100.5,219.1 100.5,219.1 100.3,217.5 99.7,215.3 99.5,212 99.9,209.4 100.7,208.3 
	100.7,208.3 100.7,208.3 99.1,208.3 97.2,208.3 97.2,208.3 97.1,207.1 97.2,205.2 96.9,203.6 97.1,201.7 96.4,200.7 95.6,200.3 
	94.7,198.4 94.1,197.5 93.3,196.9 92.8,196.6 91.7,196.4 90.6,196.4 89.8,196.4 89.2,196.2 88,196.2 88,195.7 88,195 87.7,194.4 
	87.4,194.1 86,194 85.4,194.2 85.4,193.4 85.4,193.4 84.1,193.3 82.3,193.3 81.7,193.3 80.6,193.4 79.8,193.4 78.7,193.4 
	78.3,193.3 77,193.8 76.9,193.9 76.9,193.9 73.1,193.2 71,193.2 70.2,193.3 69.6,193.5 69.2,193.7 67,193.4 65.9,193.5 65.6,193.5 
	65,193.5 64.9,190.2 64.8,188.5 66.7,184.4 67.1,183.5 67.1,183.5 68.4,177.5 68.4,177.5 68.5,176.9 68.5,176.9 69.5,175.7 
	71,174.1 73.2,168.8 73.2,168.8 73.2,168.8 74.1,164.3 74.7,159 73.5,155.2 73.5,155.2 73.5,155.2 72.3,155.2 68.1,155.4 
	68.1,155.4 68,154.4 67.1,150 67.1,150 64.9,148.7 63.6,148 62.3,147.2 44.9,137.3 44.7,137.1 41,135.4 39.3,134.6 37.8,133.8 
	36.2,133.1 36.2,133.1 31.8,132.4 32.4,116.7 32.4,116.7 32.4,116.7 31.1,116.6 29.8,116.7 29.8,116.7 29.8,116.7 29.8,110.7 
	29.3,109.6 29.3,109.6 29.3,109.6 29.4,101.9 28.8,101.7 28.6,101.6 28.4,101.3 28.4,101.3 28.4,101.2 28.4,101.1 28.4,100.2 
	28.2,99.2 28,97.7 27.9,97.4 27.9,97.2 27.9,96.9 27.9,96.4 27.9,96.4 28.1,96.3 29.2,95.9 30.5,94.7 31.1,93.7 31.4,93.3 
	31.9,92.7 32.3,92.2 33.2,91 33.6,90.4 33.9,89.9 33.9,89.9 33.9,89.9 33.9,89.8 31.9,83.9 30.3,79.3 30,75.5 29.9,74.7 29.9,74.7 
	29.9,74.7 29.9,74.7 29.9,74.7 30,74.3 30,74.3 30,74.3 30.1,73.9 30.1,73.9 30.3,73.5 30.5,73.1 30.8,72.5 30.9,72.3 31,71.9 
	31,71.9 31,71.9 31.1,71.9 31.4,71.3 31.5,71.1 31.6,70.9 31.7,70.9 31.7,70.8 31.8,70.6 31.9,70.5 32,70.5 32,70.5 32,70.2 
	32.1,70.1 32.1,69.8 32.1,68.6 32.1,68.5 32.1,68.3 32,67.9 32,67.7 31.8,67.2 31.6,66.9 31.4,66.7 31.4,66.7 31.4,66.6 31.5,66.5 
	31.5,66.2 31.4,65 31.4,64.1 31.4,63.4 31.4,63.2 31.3,62.6 31.3,62.1 31.3,62.1 31.3,62.1 31.3,62 31.3,61.8 31.5,61.7 32.1,61.6 
	33.7,61.2 34.4,61 36.4,60.5 36.6,60.5 36.7,60.4 36.8,60.4 36.8,60.4 37.6,60.2 38.6,60.2 39,60.2 39.1,60.2 39.2,60.3 39.5,60.3 
	39.6,60.3 39.8,60.3 40,60.2 40.1,60.2 40.6,59.9 40.8,59.7 40.8,59.7 40.8,59.7 41.4,58.7 41.4,58.7 41.9,57.8 41.9,57.8 
	41.6,57.5 41.3,57.3 41.2,57.2 40.6,56.7 40.4,56.5 39.5,55.5 39,55 38.3,54.4 37.5,53.9 37.3,53.7 36.9,53.4 36.5,53.2 36.3,53.2 
	36.3,53.2 36.1,53.1 35.6,53 35.4,53 34.9,53.1 33.5,53 32.4,52.8 31.3,52.5 31.2,52.4 31.2,52.4 31.1,52.3 31,52.1 30.8,51.8 
	30.7,51.7 30.7,51.6 30.6,51.5 30.5,51.3 30.3,50.7 30.2,50.4 30.2,49.9 30.2,49.9 30.2,49.5 30.1,49.3 30.1,49 30.1,48.7 
	30.1,48.7 30.1,48.7 30,48.7 30.1,48.1 30.1,47.7 30.1,47.5 30.2,46.7 30.2,46.3 30.2,45.9 30.1,45.7 30.1,45.7 30,45.6 30,45.6 
	30.1,45.3 30.1,45 30,44.3 29.9,43.8 29.5,42.8 29.4,42.3 29.2,41.7 29.1,41.3 29.5,41 30.2,40.8 30.5,40.8 31.7,40.6 33.1,40.3 
	33.1,40.2 33.5,40.1 33.5,40.1 33.8,40.3 34.1,40.6 34.3,40.8 34.5,41 34.5,41 34.6,41 35.7,41.1 36.2,41 36.3,41 36.4,41 
	36.9,40.8 36.9,40.8 37,40.7 37.2,40.6 37.4,40.5 37.6,40.4 38.3,40.2 38.4,40.2 38.5,40.2 38.7,40.2 39.1,40.2 39.7,40.2 
	40.2,40.4 40.4,40.4 40.7,40.6 41,40.8 41.1,40.8 41.5,41.1 42,41 42.5,40.8 43,40.6 43.6,40.5 44,40.4 44.4,40.3 44.4,40.3 
	44.4,40.3 44.4,40.3 44.8,40.3 45.1,40.3 45.7,40.1 46,40.1 46.1,40.1 46.1,40.1 46.1,40.1 46.1,40.2 46.2,40.3 46.6,40.6 47,40.8 
	47.5,40.7 48.1,40.4 48.4,40.3 49.5,39.9 49.5,39.9 49.5,39.7 49.5,39.6 49.5,39.5 49.4,39.2 49.4,39.2 49.4,39.2 49.3,39 49.3,39 
	49.3,39 50.7,38.9 50.7,38.9 50.7,38.9 51,39 51.1,39.2 51.2,39.4 51.2,39.5 51.2,39.6 51.3,39.9 51.4,40 51.5,40 52.1,40 52.2,40 
	52.4,40 52.4,40 52.6,39.9 52.6,39.8 52.6,39.8 52.6,39.8 52.6,39.8 52.8,39.7 53,39.7 53.2,39.6 53.5,39.5 54,39.4 54.2,39.3 
	54.8,39.1 55,39 55.4,38.9 55.9,38.9 56.3,38.9 56.3,38.9 56.3,38.9 56.6,39.2 57.1,39.4 57.6,39.5 57.6,39.4 57.7,39.4 57.9,39.1 
	58.1,38.9 58.2,38.8 58.7,38.4 58.9,38.3 58.9,38.3 59,38.2 59.3,38 59.5,37.9 60.2,37.7 60.4,37.6 60.7,37.6 61.2,37.5 61.3,37.4 
	61.6,37.3 62.4,37 62.4,37 63,36.7 64.1,36.3 64.2,36.2 64.3,36.2 64.8,35.9 65.5,35.6 65.7,35.5 66.7,35 67.4,34.6 68.2,34.2 
	69,33.7 69.1,33.6 69.1,33.6 69.7,33.2 69.8,33.2 69.8,33.2 70,33.1 70.4,32.9 70.6,32.6 71.1,32.1 71.2,32 71.3,32 71.3,31.9 
	71.5,31.8 71.5,31.7 71.5,31.7 71.7,31.5 71.7,31.5 71.8,31.4 72.4,31.2 72.9,30.8 73.2,30.6 73.2,30.6 73.4,30.9 73.7,31.2 
	73.9,31.5 74.2,31.9 74.5,32.4 74.9,32.9 75.2,33.2 75.3,33.2 75.4,33.1 76.4,32.4 76.5,32.5 76.6,32.6 76.6,32.7 76.6,32.9 
	76.3,33.8 76.5,34.3 76.9,35 78.4,36.5 78.9,37 79,37.1 79.2,37.4 79.2,37.6 79.1,37.8 79.2,37.9 80.3,38.9 80.6,39.1 81.8,40 
	82.3,40.4 82.8,40.8 84,41.8 84.3,42 84.8,42.2 85.1,42.3 85.5,42.5 85.8,42.7 86.4,43.2 86.4,43.2 87,43.4 87.6,43.6 87.9,43.8 
	88.1,44.1 88.2,44.2 88.3,44.2 88.4,44.2 89.4,44.7 90.2,45.1 90.4,45.2 90.7,45.4 90.9,45.5 91.4,45.6 92,45.9 92.4,46.1 
	92.6,46.2 93,46.3 94.1,46.5 94.5,46.7 95.3,46.8 95.7,46.8 96.8,46.8 97.2,46.7 97.4,46.7 97.9,46.6 98.2,46.6 98.5,46.7 
	98.8,46.7 99,46.8 99.1,46.8 99.2,46.8 99.7,46.4 99.9,46.2 100.2,46 100.5,45.8 100.6,45.8 101,46 101.6,46.2 102.2,46.4 
	102.2,46.4 102.3,46.4 102.6,46.7 102.8,46.8 103,47 103.1,47.1 103.8,47.4 104,47.6 104.1,47.8 104.2,47.9 104.4,48 104.7,48.3 
	104.8,48.3 104.9,48.4 105.3,48.7 105.6,48.7 105.6,48.7 105.9,48.7 106.3,48.7 106.8,48.6 107,48.6 107.1,48.6 107.6,48.7 
	107.7,48.7 107.9,48.7 108.2,48.8 109,48.9 109.3,48.9 109.9,49 111.2,49.2 111.3,49.2 111.9,49.3 113.1,49.4 114.2,49.3 
	114.8,49.3 115.3,49.3 115.9,49.3 117.8,49.1 119.1,49.1 119.6,49 120.1,48.9 120.2,48.9 120.6,48.8 121.3,48.8 121.7,48.8 
	121.8,48.7 121.9,48.5 122.4,48 122.6,47.9 122.7,47.9 122.7,47.9 123,47.9 123,47.8 123.3,47.8 123.6,47.9 123.8,48 124.3,48.2 
	124.4,48.3 124.6,48.5 124.7,48.5 124.7,48.5 124.8,48.5 125.1,48.6 125.1,48.6 125.9,48.6 125.9,48.6 126.2,48.6 126.3,48.6 
	126.6,48.7 126.8,48.9 127,49 127.7,49.5 128.3,49.8 128.6,50 128.8,50.1 129.5,50.5 129.9,50.6 130.2,50.6 130.3,50.6 130.5,50.5 
	130.6,50.6 130.8,50.7 131.3,51 131.5,51 131.6,51 131.9,50.9 132.6,50.8 132.6,50.8 133.2,50.9 133.3,50.9 133.4,51 133.6,51 
	133.6,51 133.7,51.1 134,51.2 134.2,51.2 134.4,51.2 134.7,51.1 134.8,50.9 134.9,50.8 135.1,50.2 135.1,50.1 135.2,50.2 
	135.6,50.2 135.6,50.1 136.1,49.5 136.1,49.4 136.1,49.4 136.2,49.4 136.1,49.7 135.5,51.4 135.2,52.3 135.1,52.6 134.9,53.1 
	134.3,53.1 134.1,53.5 134,53.7 134,53.9 134.2,54.1 134.3,54.1 134.1,54.8 134,55 134.1,55.1 134.1,55.1 134,55.3 134,55.4 
	133.9,55.5 133.9,55.6 133.9,56 133.8,56.3 133.8,56.4 133.8,56.4 133.9,56.4 134,56.4 134,56.3 134.2,55.8 134.5,55.3 134.5,55.2 
	134.5,55.1 134.6,55 134.7,54.9 134.9,54.7 135,54.7 135.1,54.6 135.1,54.5 135.2,54.4 135.5,54.3 135.7,54.2 136.1,54.2 
	136.1,54.2 136.1,54 135.5,53.8 135.5,53.8 136.1,54 136.1,53.6 136.1,53.5 136.2,53.4 136.2,53.4 136.4,53.2 136.6,53.1 136.6,53 
	135.9,52.8 136,52.6 136.7,52.9 136.7,52.8 136.8,52.4 136.1,52.2 136.2,52 137.6,52.6 138.3,50.7 138.4,50.7 137.7,52.6 
	137.8,52.6 139.7,53.5 140.2,53.7 140.5,53.9 140.9,54 141.4,54.2 142.3,54.6 143.3,55 144.2,55.1 145.7,55 145.7,55 145.8,56.1 
	145.8,56.3 145.8,56.4 146.2,56.4 146.2,56.4 146.4,56.4 146.4,56.5 146.5,56.5 146.5,56.2 146.4,56.2 146.4,56.2 146.6,56.2 
	146.6,56.6 146.2,56.6 146.2,56.5 145.8,56.5 145.8,56.7 146.2,57.2 146.4,57.6 146.4,57.8 146.4,58.1 146.4,58.2 146.4,58.2 
	146.8,58.2 147.1,58.2 147.1,57.9 147.1,57.5 147.1,56.9 147.1,56.2 147.1,54.5 147.2,54.5 148.5,54.5 148.6,54.5 148.6,55.4 
	149,55.4 149,54.6 149,54.4 150.4,54.4 151.2,54.4 152.2,54.4 152.7,54.4 152.8,54 152.8,53.1 152.8,53 153,52.8 153.2,52.7 
	153.2,52.7 153.4,52.6 153.6,52.5 155.2,51.8 155.5,51.7 155.7,51.7 155.7,51.7 156.6,51.3 156.8,51.2 157.1,51 157.2,50.8 
	157.3,50.1 157.3,49.6 156.3,49.6 155.7,49.5 155.7,49.5 155.5,49.5 154.4,49.5 154.2,49.5 154,49.5 153.7,49.2 153.5,49 153.4,49 
	153.2,48.9 152.7,48.6 152.6,48.6 152.5,48.4 152.2,47.3 152.1,47 152.1,46.7 152.1,46.4 152.3,46 152.4,45.3 152.4,45.2 
	152.5,43.9 152.7,42.6 152.8,41.1 153,39.4 153.1,38.3 153.2,37.3 153.7,36.5 154.3,36.3 155,36.2 155.5,36.2 156.1,36.1 
	156.8,36.1 157.2,36 157.9,36.4 158.1,36.5 158.3,36.6 158.6,36.9 158.6,36.9 159,37.2 159.6,37.3 160.5,37.9 160.9,38.9 
	160.7,40.5 160.3,42.4 160.3,43.9 160.1,45.4 160.1,45.5 160.2,46 160.3,46.2 160.5,46.8 160.6,47.4 160.6,47.8 160.5,48.2 
	160.4,48.8 160.4,49.2 160.4,49.4 160.4,49.6 160.3,49.7 160.1,49.7 160,49.8 160,49.9 160.1,50 160.2,50 160.4,50.1 160.4,50.2 
	160.4,50.3 160.3,50.3 159.9,50.4 159.7,50.5 159.7,50.6 159.6,50.8 159.5,51.3 159.4,51.9 159.5,52.6 159.6,54.1 159.7,54.8 
	159.8,55.5 160,55.4 160.5,55.4 160.5,55.4 162.1,55.2 162.4,54.7 162.5,54.6 162.7,54.6 162.8,54.7 162.9,54.9 163.5,55.1 
	164.3,55.1 164.7,55 165,54.8 165.1,54.7 165,54.5 164.9,53.9 164.6,51.8 164.4,50.9 164.2,49.2 163.8,47.1 163.5,45.5 163.3,44.6 
	163.3,44.5 163,42.3 162.9,41.7 162.7,40.9 162.8,40.9 163.5,40.8 163.5,40.8 164.3,40.6 164.6,40.6 164.9,42.1 166.5,41.8 
	166.6,42 164.9,42.3 165.3,44.8 166.7,44.5 167.1,47.1 167.1,47.1 167.1,47.5 167.2,47.5 167.8,47.4 168.4,47.3 168.4,47.2 
	168.5,47.2 168.5,47.3 169,47.2 169,47.1 169.1,47.1 169.1,47.2 169.3,47.2 169.6,47.1 169.6,46.8 169.6,46.5 169.4,46.5 168,38.3 
	168,38.2 168.3,38.2 168.3,38.2 168.7,38.1 168.7,38.2 168.8,38.3 168.9,38.9 169,39.4 169.1,40 169.2,40.7 169.3,41.3 169.6,43 
	169.8,44 169.8,44.2 169.9,44.4 170,44.9 170.3,46.1 170.5,47.4 170.8,48.8 170.9,49.7 171.2,51.4 171.6,53.5 171.6,53.7 
	171.7,54.2 171.8,54.2 172.4,57.8 172.4,57.8 172.5,58 172.5,58.1 172.5,58.7 172.4,58.8 172.4,58.9 172.4,59.2 172.4,59.7 
	172.4,60.2 172.5,61.6 172.6,61.8 172.4,61.8 172.2,61.7 172.2,61.6 172.2,61.4 172.1,61.2 172,61.1 171.9,61.1 171.8,61.1 
	171.7,61.3 171.7,61.5 171.7,61.9 171.8,62 171.9,62 172.6,62.2 173.1,62.3 173.2,62.3 173.3,62.5 173.4,63.1 173.5,64 173.6,64 
	173.6,64 173.7,64 173.9,64 174.3,64.3 175.1,65 175.8,69 178,69.3 178.5,71.9 179.3,71.8 179.1,70 179.4,70 179.7,71.8 179.7,72.1 
	179.8,72.1 179.8,72.1 180,72 180,71.8 179.9,71.3 179.6,69.4 179.6,69.4 180.2,69.6 180.5,69.6 180.7,69.6 180.9,69.6 181.2,69 
	181.4,68.7 181.7,68.3 181.8,68.1 182.2,68.2 182.5,68.2 182.7,68.3 183.1,68.2 183.2,68.2 183.5,68.2 183.8,68.3 184.1,68.2 
	184.4,67.1 184.6,65.2 184.7,64.5 184.7,64.3 184.8,64 184.8,63.5 185,62.6 186.1,62.7 186.5,62.8 186.9,62.8 188.8,63.1 
	189.1,63.1 189.1,63.2 189.1,63.5 189.2,63.9 189.1,64.3 189.1,64.4 189,64.9 189,65.3 189.1,65.5 189.1,65.7 189.1,66.2 
	188.9,66.6 188.9,66.9 188.9,67.2 188.9,67.5 189,67.8 189.1,67.9 190,68 191.1,68.2 191.1,68.3 191,69.2 190.9,69.5 191,69.6 
	191,70 191,70.2 191,70.5 191.1,71 191.1,71.1 191.2,71.2 191.7,71.3 192.1,71.4 193.8,71.6 194.2,71.8 194.5,71.8 194.6,71.8 
	195.1,71.6 195.3,71.6 196.4,71.4 196.9,71.2 198.2,69.9 198.4,69.8 198.9,69.7 199,69.7 199,70 199.3,72.1 199.4,72.8 199.5,73.5 
	199.7,74.7 200.2,74.7 200.1,74.2 200.1,73.9 200.1,73.7 200,73.4 200,73.2 200,73.2 200,72.9 199.9,72.6 199.9,72.3 199.8,72 
	199.8,71.6 199.7,71.3 199.7,71.1 199.7,71 199.6,70.5 199.5,70.1 199.5,70.1 199.5,69.7 199.4,69.3 199.4,68.8 199.3,68.4 
	199.3,68 199.3,68 199.2,67.5 199.2,67.1 199.1,66.9 199.2,66.9 199.2,66.9 199.5,67.2 199.5,67.3 199.4,67.7 199.4,68.1 
	199.5,68.7 199.6,68.9 199.7,68.9 200.2,69 200.3,69.1 200.5,69.8 200.7,69.8 201,69.9 201,70.1 201,70.7 201.1,70.8 201.2,70.8 
	203,70.6 203.7,70.6 205.2,70.4 205.6,70.4 205.8,70.4 206.2,70.4 206.8,70.4 207.6,70.3 208.1,70.3 208.1,70.3 208.1,70 208.3,70 
	208.3,70.1 208.2,70.1 208.2,70.2 208.5,70.3 208.8,70.3 209.1,70.3 209.6,70.3 210,70.3 210.3,70.4 210.5,70.3 210.6,70.3 
	210.6,70.2 210.6,70 210.6,69.8 210.7,69.7 210.9,69.7 211.2,69.8 211.6,69.7 211.9,69.8 212.2,69.8 212.8,69.8 212.8,69.8 
	214.2,69.8 214.8,69.8 215.4,70 215.5,70 215.7,70.3 215.9,70.5 215.9,70.7 215.9,71 215.6,71.4 215.5,71.6 215.3,71.8 215,71.9 
	214.7,72 214.4,72 214.1,72 213.9,71.9 213.4,71.6 212.9,71.5 212.6,71.4 212.4,71.4 212.3,71.4 211.9,71.4 211.8,71.7 211.7,71.8 
	211.6,71.9 211.5,71.9 211.5,72.2 211.7,72.4 211.8,72.6 211.9,72.8 212.1,73 212.3,73.2 212.5,73.2 212.9,73.3 213.3,73.2 
	213.4,73.2 213.6,73.2 213.7,73.2 214,73 214.1,73 214.1,73 214.1,73 214.2,73 214.3,72.9 214.6,72.9 215,73 215.3,73.1 215.9,73 
	216.2,73 216.3,72.9 216.3,72.8 216.3,72.4 216.1,72.3 216,72.3 215.9,72.3 215.9,72.4 215.8,72.4 215.8,72.2 216,72.2 216.1,71.9 
	216.6,70.5 216.7,70.3 216.7,70.2 216.8,70 217,69.9 217.4,69.8 217.4,69.8 217.4,69.7 218,69.5 218.2,69.5 218.2,69.4 219,69.2 
	219.1,69.2 219.5,69.1 219.9,69 220.1,68.9 220.2,68.9 220.4,68.8 220.5,68.9 220.7,69 220.8,69 221.6,69 222.3,68.9 222.6,68.9 
	222.7,68.8 222.7,68.6 222.7,68.6 222.9,68.6 223.1,68.6 223.4,68.5 223.3,67.8 223.1,67.8 223.1,67.8 223.3,67.8 223.2,67.4 
	223.1,67.5 223.1,67.4 223.2,67.4 223.2,67.1 223.1,67.1 223.1,67.1 223.4,67 223.8,66.9 223.8,66.9 223.4,67.1 223.2,67.1 
	223.3,67.4 223.4,67.4 223.6,67.3 223.6,67.3 223.4,67.4 223.3,67.4 223.3,67.7 223.9,67.5 224,67.6 223.9,67.7 223.9,67.6 
	223.3,67.8 223.4,68.5 226.6,67.5 228.9,66.8 228.9,66.9 229.3,66.5 229.3,66.5 229.7,66.1 230.1,65.4 230.2,65.3 230.4,65.3 
	230.5,65.2 230.7,65.1 230.7,65.1 231.1,65 231.3,64.9 231.5,64.9 231.6,65 232,64.9 232.5,64.9 232.6,64.7 232.9,64.6 234.5,64.1 
	234.9,64 235.9,63.6 236.1,63.4 236.2,63.4 236.5,63.3 237.3,63 238.1,62.7 238.5,62.6 238.7,62.6 239.4,61.9 239.9,61.6 
	240.1,61.3 240.2,61.1 240.2,60.8 240.2,60.7 240.2,60.6 240.4,60 240.6,59.8 240.8,59.5 241,59 241,58.7 240.9,58.6 241.7,57.9 
	242,57.7 242.5,57.3 243,57.1 243.3,56.9 243.5,56.6 243.8,56.4 244.2,56.2 244.6,55.9 245.2,55.7 245.3,55.7 245.5,55.5 
	245.5,55.4 245.5,55.3 246.5,54.5 246.6,54.5 246.7,54.4 247.4,53.8 248.6,52.9 249.4,52.1 249.6,51.7 249.9,51.4 250,51.2 
	250.5,50.8 251.1,50.4 251.4,50.2 251.6,50.1 251.7,50 251.8,50.1 251.7,50.5 251.2,52.7 251.1,52.8 250.9,53.1 250.9,53.2 
	250.9,53.9 250.9,54.1 250.9,54.3 250.8,54.6 250.7,54.8 250,55.3 249.8,55.4 249.4,55.7 248.8,56 248.2,56.3 247.8,56.5 
	247.4,56.8 246.9,57 246,57.5 244.6,58.2 244.3,58.4 243.8,58.7 243.1,59.1 242.6,59.3 243,59.7 243.4,60.6 243.5,60.7 243.8,60.5 
	244,60.4 244.1,60.4 244.2,60.3 245.1,59.8 245.2,59.8 245.2,59.7 245.3,59.6 245.4,59.5 245.6,59.3 245.8,59.2 245.9,59.2 
	246,59.2 246.1,59.2 246.3,59.5 246.4,59.6 246.5,59.5 246.6,59.5 246.8,59.6 246.9,59.6 247,59.6 247.2,59.5 247.3,59.5 
	247.2,59.1 247,58.8 247.4,58.6 247.7,58.4 248.1,58.2 248.3,58.1 248.6,58 249,57.7 249.1,57.6 249.1,57.6 249.9,57.2 250.3,57.3 
	250.4,57.5 250.3,57.6 250.2,57.5 250,58 250.2,58.1 250.2,58.1 250.2,58.3 250.1,58.5 250.3,58.5 249.9,59.9 249.9,59.9 
	249.3,61.9 248.6,62.4 249,63.1 249.5,62.7 250,62.8 250.2,62.9 250.3,62.8 250.3,62.8 250,63.3 250.1,63.3 250.6,63 250.8,62.8 
	251.6,62.1 251.6,62.1 251.7,61.6 251.6,61.5 251.5,61.4 251.6,61.2 251.4,61.2 252.2,57.5 252.9,54.1 253,54.1 253.1,54 
	253.3,53.8 253.4,53.6 253.4,52.9 253.5,52.4 253.5,52.3 253.5,52.1 253.5,51.9 253.4,51.8 253.4,51.7 253.6,51.7 253.6,51.7 
	253.6,51.4 253.8,50.2 254.1,49.4 254.3,49.2 254.3,49.2 254.3,49.2 254.8,48.7 255,48.5 255.6,47.8 255.7,47.6 255.7,47.3 
	255.8,47.2 256.1,46.9 256.3,46.9 256.5,46.9 257.1,46.9 257.1,47 257.3,47 257.2,51 256.5,52.8 256.3,52.7 256.2,53.1 256.1,53.7 
	255.9,54.8 255.8,55.1 255.7,55.5 255.7,55.7 255.5,56.8 255.3,57.4 255.2,57.7 255,58.1 255,58.1 254.9,58.2 254.9,58.3 255,58.4 
	255.1,58.4 255.1,58.2 255.2,58.1 255.3,57.9 255.4,57.8 255.5,57.6 255.6,57.6 255.8,57.6 255.9,57.6 255.9,57.5 256.1,56.6 
	256.3,55.6 256.2,55.5 256.2,55.1 256.4,55.1 256.9,52.9 258,53 258,53.5 257.8,53.5 257.6,55 257.9,55.1 257.8,55.5 257.5,55.5 
	257.2,56.8 257.1,56.8 257.1,56.9 257.3,57.2 258.3,56.7 258.3,56.3 258.4,56.2 258.5,56.6 258.5,56.6 258.6,55.4 258.6,53.8 
	258.6,52.3 258.6,52.2 258.6,51.7 258.7,51.7 258.7,49.7 258.6,49.7 258.6,49.3 258.7,49.3 258.8,48 259.1,47.6 259.8,47.5 
	260.1,47.8 260,52.6 260.1,52.6 260.1,52.6 260.2,52.6 260.2,52.5 260.2,52.3 260.3,51.3 260.3,51.3 260.4,51.1 260.4,51 
	260.5,47.3 260.2,47.2 260.1,47.4 259.7,47.3 259.7,47.2 259.2,47.1 258.7,46.4 258.8,45.4 258.8,45.4 258.9,43.5 259,41.2 
	259.1,38.7 259.3,38.8 259.6,38.8 259.7,37.9 259.8,37.9 259.7,43 260.1,43 260.2,42.9 260.3,42.7 260.4,42.7 260.5,41.1 
	260.3,41.1 260.4,40.8 260.6,40.8 260.6,39.3 260.7,39.3 260.7,40.8 260.8,40.9 260.8,41.1 261.2,41.1 261.2,40.9 261.5,40.9 
	261.6,39.1 261.6,39.1 261.7,38.8 261.5,38.8 261.7,37.3 261.9,37.3 261.9,37.6 262.3,37.7 262.4,37.1 262.8,37.2 262.6,39.1 
	262.4,39.1 262.4,39.2 262.4,39.2 262.3,40 262.6,40 263.2,40.7 263.4,40.7 263.4,40.8 263.2,45.6 262.9,52.4 264.8,52.5 
	265.1,45.1 265.2,40.5 265.6,40.1 267.5,40.2 268.6,41.5 268.5,44.7 268.6,44.9 268.6,45.2 268.3,52.5 269.8,52.6 270.1,45 
	270.2,41.6 273.5,41.7 273.4,44.2 273.3,45.3 273.3,48.3 273.1,52.8 273.1,52.8 273.3,52.8 273.3,52.8 274.1,52.8 274.2,52.6 
	274.8,52.6 274.7,52.9 275.1,52.9 275.2,51.5 275.2,49 275.4,44.5 275.5,41.5 275.6,41.5 275.7,41.5 275.8,41.5 275.8,41.5 
	275.9,41.5 275.9,41.5 275.9,41.5 275.9,41.5 276.2,41.5 276.7,41.5 276.8,41.4 277.4,41.4 277.6,41.4 277.6,41.4 277.8,41.4 
	277.8,41.5 278.1,41.5 278.3,41.4 278.4,41.4 278.5,41.3 278.9,41.3 279.1,41.2 279.1,41 279.2,41 279.7,41 279.7,41.1 279.9,41 
	279.9,41 279.8,40.9 279.8,40.8 279.5,40.8 279.2,40.9 279.2,40.8 279.3,40.8 279.5,40.7 279.8,40.7 279.9,40.8 280,41 280,41.1 
	280.2,41.1 280.3,41.1 280.6,41 280.6,41 280.6,41.1 280.7,41.5 281,41.6 281.8,41.7 282.5,41.8 283.2,41.8 284.5,41.9 286.2,42 
	287.9,42 288.4,42 288.7,42.1 288.8,41.8 288.7,41.8 288.7,41.6 288.8,41.6 288.8,42.1 289.8,42.1 289.8,42.1 290.3,42.1 
	290.3,42.1 290.8,42.1 290.8,41.7 290.9,41.7 290.9,41.8 290.9,41.8 290.8,42.3 290.6,42.3 290.6,42.5 290.4,42.5 290.4,42.9 
	290.7,42.9 290.7,42.8 290.8,42.8 290.8,42.9 291.1,42.9 291.1,42.9 291.3,42.9 291.3,43.2 291.1,43.2 291.1,43.1 290.8,43.1 
	290.8,43.5 290.8,45.8 291.1,45.8 291.1,45.7 291.2,45.7 291.2,46 291.1,46 291.1,45.9 290.8,45.9 290.7,49 291,49 291,49 291.1,49 
	291.1,49.2 291,49.2 291,49.2 290.7,49.2 290.5,51.7 290.9,51.7 290.9,51.7 291,51.7 291,52 290.9,52 290.8,51.9 290.5,51.9 
	290.5,53.1 290.8,53.4 290.8,53.7 291.2,54 291.5,54.1 291.6,53.9 292.1,54.1 292.1,54.2 292.1,54.2 292.1,54.5 292.2,54.9 
	292.5,54.9 293,54 292.6,54.3 292.7,54 292.8,53.8 292.8,53.6 292.8,53.4 292.8,53.3 292.8,53.3 293,52.9 293,52.5 293,51.8 
	293,51.6 293,51.3 292.7,51.2 292.6,52.6 292.5,52.6 292.5,50.7 292.7,50.7 292.7,51.1 293,51.1 293,50.9 293,50.7 292.9,50.6 
	292.9,50.4 292.9,50.3 293.1,49.7 293.3,49.6 293.4,49.2 293.5,49.2 293.9,49.3 295.4,49.3 295.4,48.8 296.7,48.9 296.7,46.7 
	295.7,46.7 295.6,46.7 295.6,46.6 295.1,46.5 295,46.8 294.3,46.8 294.3,45.8 293.8,45.8 293.8,44.7 293.9,44.6 293.8,44.4 
	293.6,44.5 293.6,44.4 294,44.1 294.1,44.2 293.9,44.3 294,44.5 294.1,44.4 294.5,44.1 294.8,44 295.2,43.6 295.4,43.5 296.2,43.5 
	297.2,43.4 297.7,43.5 297.8,43.5 297.9,43.7 297.9,43.7 299,43.9 299.7,44.1 300,44.1 300.1,44.1 300.2,44 300.2,43.9 300.1,43.7 
	300.1,43.6 300,43.5 299.5,43.5 299.2,43.4 299.1,43.3 299,43.2 300.3,43.2 300.9,44.2 301.6,44.2 301.7,44.2 301.7,44.2 
	301.8,44.2 301.8,44.4 301.8,44.7 301.9,44.9 302,45 302.3,45.2 302.4,45.3 302.5,45.3 302.6,45.1 302.7,45 302.7,45 302.8,44.6 
	302.8,44.6 302.9,44.5 303.4,44.5 303.5,44.4 303.7,44.2 303.8,44.1 303.9,44.1 304.1,44.2 304.2,44.2 304.2,44.2 304.2,44.1 
	304,44 303.9,44 303.9,43.8 303.8,43.8 303.9,43.5 306.8,43.7 306.8,44.2 306.8,44.5 306.8,45.8 306.9,46.1 307.1,46.7 307.1,47 
	307.1,47.4 307.1,48.2 307,49 307,49.7 307,49.9 307.1,49.9 307.3,50 307.3,50 307.8,49.9 308,49.9 308.5,49.8 308.6,49.8 
	308.9,49.6 309.2,49.6 309.7,49.5 309.9,49.5 310.2,49.5 310.5,49.4 310.5,49.4 310.3,49 310.2,48.9 310.1,48.9 309,48.9 
	308.5,48.8 308.3,48.9 308.2,48.8 308.1,48.7 308,48.4 307.9,48 308,47.8 308,47.6 308,47.2 308.1,46.5 308.2,46.4 308.3,46.4 
	308.4,46.4 308.7,46.3 310.1,46.2 310.5,46.1 311.6,46 312.8,45.6 314.3,45.4 314.4,45.4 314.4,45.3 314.4,45 314.5,44.9 315,45 
	315.1,45 315.3,45 315.4,45 315.5,44.9 315.6,44.9 315.8,44.8 315.8,44.8 315.8,44.7 316,44.7 316.1,44.7 316.2,43 316.1,42.9 
	315.9,42.9 315.9,42.9 315.9,42.7 315.9,42.6 316,42.5 316.3,42.5 316.3,42.5 317.3,42.3 317.7,42.2 318,42.2 318.2,42.1 
	318.6,42.1 319.7,41.8 320.3,41.7 321.8,41.5 322,41.5 322.1,41.5 323.7,41.3 324,41.3 324.1,41.2 324.2,41.1 324.2,41.1 324.3,41 
	324,41 323.1,41.2 322.7,41.2 322.4,41.3 322.1,41.3 322,41.3 322,41.3 322.3,41.2 322.6,41.1 323.9,40.9 326,40.5 326.6,40.4 
	326.8,40.4 327,40.5 327.1,40.5 328,40.3 328.5,40.3 328.8,40.3 329.1,40.6 329.3,40.7 329.4,40.9 329.5,40.9 329.5,41 330.9,42.6 
	331,42.8 331,43.1 331.1,43.1 331.1,43.1 331.3,43.1 331.5,43.1 331.6,43 331.6,42.9 331.6,42.7 331.6,42.6 331.6,42.6 331.7,42.6 
	331.7,42.7 331.8,43 332,43.4 332.4,44.6 332.6,45.4 332.6,45.6 332.9,45.5 332.9,45.4 332.8,45.1 332.6,43.7 332.5,43.4 
	332.4,42.9 332.4,42.9 332.2,42.4 332.2,42 332.2,41.8 332.2,41.8 332.3,42.3 332.5,42.8 332.6,42.8 333.6,42.7 335.7,42.4 
	336.1,42.4 336.8,42.2 337.8,42.1 338.2,42 338.4,42 338.7,42 339,41.8 340,41.2 340.6,40.7 341,40.5 341.2,40.5 341.7,40.5 
	343.3,40.5 343.7,40.5 344.8,40.5 345.5,40.4 347.6,40.4 349.6,40.4 350.8,40.3 351.8,40.1 352.3,40 352.4,40 352.4,39.4 
	352.4,39.4 352.5,39.4 352.6,39.3 352.6,39.4 352.6,39.4 352.5,39.4 352.5,39.4 352.4,39.8 352.4,40.1 352.4,40.1 352.4,40.6 
	352.4,40.8 352.4,41 352.3,41.2 352.3,41.4 351.5,42.6 351,43.3 350.9,43.4 351.2,43.4 351.4,43.4 351.4,43.3 351.7,43.2 351.8,43 
	351.9,43 352.1,42.8 352.2,42.7 352.4,42.3 352.6,42.1 353,41.8 353.1,41.7 353.3,41.5 353.3,41.4 353.3,41.2 353.5,41 353.5,40.9 
	353.6,40.8 353.9,40.6 354.4,40.1 354.5,39.9 354.6,39.2 354.7,37.9 354.9,37.5 355.3,37 355.7,36.8 356.6,36.4 357.2,36.1 
	357.7,35.9 357.9,35.9 358.1,35.8 358.2,35.7 358.4,35.7 358.5,35.7 358.9,35.7 359.1,35.6 359.4,35.5 359.8,35.4 360.4,35.2 
	360.7,35.1 360.9,35 361.4,34.9 362,34.8 362.2,34.8 362.7,34.7 362.9,34.6 363.9,34.4 364.8,34.2 366.2,33.8 366.7,33.6 
	366.9,33.6 367,33.6 367.2,34.8 367.6,38.3 368.8,45 369.2,47 369.9,50.5 370.1,53 370,58 369.8,61.5 369.3,64.5 368.8,70 
	369.1,74.2 369.2,74.7 369.2,74.7 368.7,76.5 368.7,76.5 368.8,79.3 372.1,102.4 371.5,109.7 370.5,110.2 370.2,131.4 370.2,131.4 
	370.3,134.1 370.3,134.1 367.9,154.2 367.5,157.4 367.4,157.9 365,158.3 364.4,158.4 364.4,158.4 364.4,158.4 364.4,158.4 
	364.2,161.6 364.1,164.2 363.9,168.2 363.9,168.6 363.7,172.1 363.6,172.9 363.6,172.9 363.6,172.9 356.7,175 353.1,182.1 
	351.8,186.1 351.2,187.7 351.1,188 351.1,188 350.9,188 349.8,187.9 346,187.6 345.3,187.5 345.2,187.5 345.2,187.5 345.2,187.5 
	345.2,187.5 343.7,199.6 339.8,204.4 339.8,204.4 339.8,204.4 337.8,208.6 337.3,209.6 334.8,210.3 334.9,211.1 335.1,212.3 
	336.4,212.3 336.8,224.2 336.8,224.6 336.8,224.6 336.7,226 337.1,227.5 336,227.6 335.5,227.9 334.2,227.9 333.8,228.4 
	333.5,228.6 333.2,228.9 327.2,228.4 325.6,229.1 324.4,229.5 322.5,229.2 321.5,229 319.7,228.4 318.9,229.1 317.9,230 
	317.7,230.1 317.6,230.2 316.8,229.6 313.9,229.2 310.7,229.3 310.6,229.3 310.6,229.3 310.4,228.9 310.1,228.2 310.2,227.7 
	310,227.1 309.9,226.6 310.1,226.5 310,226.2 309.6,225.8 309.3,225.6 309.3,225.3 308.2,225.1 307.4,225.4 307.3,226.1 
	306.1,226.5 305.9,226.8 305.7,226.9 305.5,227.4 305.2,227.5 304.9,227.9 303.8,227.8 303.9,229.4 304.3,229.4 304.2,232.3 
	303.9,232.4 303.7,233.2 303.7,233.9 303.1,234.8 300.6,234.3 299.9,234.1 298,232.9 297.2,231.9 296.7,231.5 296.1,231.4 
	296.5,233.9 296.3,234 296.2,234.3 291,236.8 290.6,236.8 290.5,236.8 290.4,237.2 289.8,238.2 289.4,238.7 289.3,239.3 290.1,240 
	290.6,240.4 290.1,240.8 290.3,241.6 289.7,242.1 290,243.1 289.6,243.7 289.5,243.8 289.8,244 290.1,244.2 290.1,244.2 
	290.3,244.5 290.3,244.6 290.3,244.7 290.2,245 289.8,245.4 290.1,245.9 290.1,245.9 290.2,246.1 290.7,246.3 290.7,247.1 
	290,247.6 289.3,248.3 289.1,248.5 289.3,248.8 289.4,249 289.4,249 289.8,249 290.7,249 290.6,249 290.6,249.8 291,250.2 
	291.5,250.8 292.2,250.9 292.7,251.5 293.7,251.2 294.5,251 294.2,251.6 294.4,251.7 294.9,251.9 295.2,252 295.9,251.4 
	295.8,252.1 295.3,253 295,253.7 295.2,254.4 295.2,255.3 295,256.5 294.9,257.7 294.8,257.9 294.7,258.5 294.6,259.1 294.5,260.1 
	294.5,260.7 295.1,261.5 294.6,262.5 293.8,263.2 293.6,263.7 294.2,264 294.8,265.8 294.8,265.8 294.9,267.1 295.1,267.2 
	295.8,267.5 295.8,267.5 295.6,268.5 296.5,268.9 296.4,269.4 296.3,269.6 296.2,270 295.7,271 295.7,271.1 296.2,271.4 
	295.9,272.2 295.3,273 295.6,273.9 295.8,273.6 296.7,272.2 297.3,272.2 297.2,272.4 296.7,273 296.9,273.7 297.2,273.5 298,272.7 
	298.1,272.8 298.4,273.1 298.4,273.1 298.3,273.1 296.6,274.1 296.7,274.6 296.8,274.6 297.5,275.1 297.6,274.9 297.9,274.4 
	298.2,274.7 298.3,274.9 298.2,274.9 298,275.5 297.9,275.5 297.9,275.6 296.9,276.2 296.8,276.2 296.5,276.7 296.4,277 
	296.5,277.6 296.5,277.6 296.7,277.6 297.2,277.8 297.3,277.8 298.2,278 298.7,278.1 298.8,278.4 298.3,278.8 298.3,278.9 
	298.3,278.9 297.8,279.4 297.3,280 298.2,280.5 298.4,280.9 298.4,280.9 298.4,280.9 298,281.6 298.2,282.3 298.4,282.5 
	298.5,282.5 299,282.9 299.7,283.1 299.8,283.1 300.7,283 300.9,283 301.3,282.5 301.6,282.3 302,281.6 302.5,281.2 303,281.4 
	303.9,282.1 304.5,282.2 304.9,282.4 305,282.4 305.3,282.7 305.3,283.3 305.2,284 305.4,284.4 305.8,284.6 306.3,284.2 
	306.8,283.9 306.9,284.5 306.9,284.7 306.7,285.2 306.8,285.4 307.5,285.7 307.9,285.7 308.4,284.9 309.1,284.9 309.1,284.9 
	309.3,285.2 309.3,285.2 309.1,285.8 308.7,286.3 308.7,286.8 308.9,287.1 309.2,287.6 309.6,288.2 309.7,288.6 309.5,288.9 
	309.8,289.5 309.9,289.8 309.9,290 310,290.1 310,290.2 310.1,290.7 310.2,290.9 310.2,290.9 310.2,290.9 309.9,291.2 309.8,291.4 
	309.8,291.9 309.9,292.6 310,292.9 309.6,293 309.5,293.2 309.5,293.3 309.4,293.5 309.3,293.6 309,293.9 308.7,294.1 308.5,294.5 
	308.8,295.2 309.2,296.2 309.3,296.8 309.1,297.5 308.3,298 308.4,298.2 308.8,298.8 309.2,299.2 309.6,299.3 309.7,299.4 
	309.9,299.8 310.3,300.4 310.9,300.9 311.1,301 311.5,301.4 311.4,301.5 310.4,303.3 310.6,304 310.6,304.8 310.6,304.8 
	310.6,304.9 310.4,305.6 309,306 309.1,306.8 309.3,307.2 309.2,307.5 309.1,308.1 308.8,309.2 308.8,309.4 308.8,309.4 
	308.8,310.2 308.8,310.2 308.9,310.2 309.4,310.5 309.4,310.5 309.4,310.5 309.5,311.7 309.8,312.1 310,312.8 309.8,313.2 
	309.5,313.5 309.1,313.8 308.8,314 308.3,314.1 308,314.1 307.5,314.1 307.2,314.4 307,314.8 307.1,315 307.1,315.2 307,315.4 
	307,315.7 306.8,315.9 306.6,316 306.1,316.5 305.9,317 305.9,317.6 306,318.2 306.1,318.4 306.2,318.7 306.3,318.8 306.7,319.3 
	306.9,319.4 307.7,319.3 308.3,319.3 308.6,320.3 309,321.6 309.1,323.1 308.6,324 308.5,324.5 308.5,324.5 308.5,324.5 
	307.9,324.7 307.4,325.7 307.3,326.2 307.2,326.7 307.3,327.1 307.5,327.6 307.4,328.1 307.2,328.7 307,329.5 307.2,329.9 
	307.3,330.1 307.3,330.3 307.3,330.7 306.4,331.1 306.1,331.7 306.1,331.7 305.7,332.1 306.4,332.6 307.4,333.5 307.3,334.2 
	307,334.4 306.8,334.5 306.8,334.5 306.4,335.2 306.5,335.4 306.6,335.7 306.6,335.8 306.6,335.8 306.7,335.9 307.3,336.3 
	306.9,336.6 306,336.9 304.9,336.9 304.7,337.7 304.5,338.8 304.6,339.3 304.8,339.6 304.8,339.7 304,339.7 303.2,339.9 
	303.6,340.8 304.2,341.1 304.6,342 304,342.3 303.8,342.8 303.6,343.2 303.6,343.2 303.7,343.3 303.9,343.4 304.8,344.2 305.3,345 
	304.5,345.4 303.7,346.5 304.2,346.8 304.3,347.9 304.7,348.1 304.1,348.6 302.7,349.9 302.6,350.7 304.6,351.7 304.4,352.2 
	303,352.1 302.4,352.7 301.6,353.7 301.8,354.4 300.4,354.7 300.5,355.3 301.3,355.8 301,356.6 301.9,357.1 302.7,357.4 301.5,358 
	302.1,359 303.4,359.7 303.2,360.1 301.8,360.3 302.1,361.1 301.6,361.7 301.5,363.2 300.6,362.4 299.8,361.5 298,361.3 
	296.8,360.8 296.4,359.9 295.1,359.3 293.6,357.8 292.2,357.1 291.1,357.5 289.9,359.4 288.7,360.9 287.2,363.7 286.4,366.9 
	285.7,367.5 284.7,367.8 282.9,367.3 281.3,366.7 281,367.1 280.1,368.4 279.6,368.7 279.2,369.4 279.2,369.4 278.9,369.3 
	277.6,369.3 276.3,368.3 275.2,368.1 274.3,367.6 272.3,367 271.7,366.7 271.7,366.7 271.7,366.7 271.4,365.7 271.4,365.7 
	271.2,365.5 271.2,365.5 270.6,366.4 269.7,366.4 269.5,368.1 268.5,368 267.4,368 266.3,368.1 265.1,368 264.7,368.4 264.5,368.8 
	264.5,368.8 264.5,368.8 263.7,368.3 264.1,366.7 264.6,366.1 265,364.5 264.8,364.1 264.4,364 264.4,363.4 264.5,363.3 
	264.6,363.1 264.7,362.8 264.6,362.7 264.6,362.6 264.5,362.5 264.3,362.2 263.8,362.1 263.6,362.5 263.2,362.3 262.9,362.2 
	262.6,362.7 262.7,363.5 262.7,364 262.4,363.9 262,364.2 261.6,364.2 261.3,363.9 261.4,363.2 261.4,362.5 261.1,362.1 
	261.1,362.1 260.4,361.6 260.3,361.5 259.9,362 259.5,361.6 259,361.1 258.4,361.2 258.3,360.8 257.8,360.2 258.3,359.6 
	258.5,359.4 258.4,359.2 258.5,358.8 258.9,358.7 259.2,358.7 259.3,358.3 259,357.7 257.8,357.8 257.2,357.5 256.9,358.2 
	256.4,358.3 256.2,358.6 255.4,358.3 254.3,358.3 254.3,358.5 254.3,358.5 254.3,358.6 254.3,359.1 253.5,358.2 251.8,356.4 
	250.7,355.5 250.4,355.3 248.7,351 248.4,348.1 248.4,348.1 247.8,348 246.9,348 245.7,348 244.4,347.9 242.1,348 240.7,348 
	239.5,348 238.3,348.3 236.1,348.8 235.9,348.2 234.6,346.8 233.7,345.7 232.7,343.9 232.4,343 231.9,342.2 231.6,341.7 
	231.3,341.1 232.1,341.1 232.2,341.1 232.2,341.1 232.2,341.1 231.1,339.5 230.5,339.1 229.2,339.1 229.2,339.1 228.9,338.3 
	227.7,337.3 226.4,336.6 225.4,335.8 224.5,334.8 224,334 223.3,333.1 223,332.3 222.2,331.4 220.9,330.6 220.5,330.7 219.7,330.7 
	218.9,332.1 218.8,332.8 218,333.4 216.7,334.1 215.9,334.5 214.4,334.7 213.4,334.9 "/>
</svg>
