<?xml version="1.0" encoding="utf-8"?>
<!-- Generator: Adobe Illustrator 22.0.1, SVG Export Plug-In . SVG Version: 6.00 Build 0)  -->
<svg version="1.1" id="Layer_1" xmlns="http://www.w3.org/2000/svg" xmlns:xlink="http://www.w3.org/1999/xlink" x="0px" y="0px"
	 viewBox="0 0 400 400" style="enable-background:new 0 0 400 400;" xml:space="preserve">
<style type="text/css">
	.st0{fill:none;stroke:#232323;stroke-width:0.737;stroke-linecap:square;stroke-linejoin:bevel;stroke-miterlimit:10;}
</style>
<polygon class="st0" points="173.7,64 173.7,64 173.7,64.1 173.8,64.7 173.8,64.8 173.9,65.4 174.3,67.8 174.4,68.1 175.3,73.6 
	175.4,74.7 175.4,74.7 175.5,75.2 175.5,75.3 175.5,75.8 175.6,76.4 175.8,76.7 175.8,77.1 175.8,77.1 175.8,77.5 175.7,77.9 
	175.7,78 175.7,78.1 175.7,78.2 175.7,78.3 175.8,78.6 175.8,78.7 175.9,78.9 175.9,79 176,79.1 176,79.2 176,79.2 176.1,79.4 
	176.4,80 176.4,80.1 176.4,80.1 176.6,80.6 176.6,80.8 176.7,81 176.7,81.1 176.8,81.2 176.8,81.3 176.8,81.5 176.8,81.6 
	176.8,81.7 176.9,81.7 176.9,81.7 176.9,81.7 176.8,81.7 176.8,81.7 176.7,81.7 176.7,81.8 176.6,81.8 176.2,81.9 176.1,81.9 
	175.8,82 175.8,82 175.7,82 175.6,82 175.6,82 175.5,82.1 175.1,82.1 174.5,82.3 174.1,82.4 174.1,82.4 173.8,82.5 173.7,82.5 
	173.7,82.5 173.4,82.6 172.8,82.8 172.8,82.8 172.8,82.8 172.7,82.8 172.7,82.8 172.6,82.8 172.4,82.9 172.2,82.9 172,83 172,83 
	172,83 171.9,83 171.9,83 171.9,83 171.8,83 171.8,83 171.8,83 171.8,83 171.5,83.1 171.5,83.1 171.4,83.1 171.3,83.2 171.3,83.2 
	171.2,83.2 171.1,83.2 170.8,83.3 170.6,83.3 169.5,83.6 168.1,84 168.1,84 167.5,84.1 166.7,84.4 166.7,84.4 166.6,84.5 
	165.7,85.1 165.5,85.3 165.3,85.5 165.3,85.6 165.2,85.8 164.8,86.6 164.7,86.7 164.6,87 164.6,87.3 164.6,87.4 164.6,88.5 
	164.6,88.5 164.6,88.6 164.6,88.6 164.6,88.6 164.5,88.6 164.4,88.6 164.3,88.6 164.2,88.7 162.1,88.8 160,89 159.4,89.1 
	158.1,89.2 157.2,89.3 156,89.4 155.9,89.4 155.9,89.4 155.9,89.4 155.9,89.3 155.9,89 155.8,88 155.7,86.1 155.5,84.6 155.5,84.3 
	155.5,84.2 155.5,84.2 155.5,84.2 155.5,84 155.4,83.4 155.4,83.3 155.4,83.3 155.3,83.3 154.5,83.3 154.3,83.3 153.6,83.2 
	152.8,83.1 152.6,83.1 152.5,83.1 152.2,83 151.7,82.9 151.3,82.8 151.2,82.8 150.4,82.6 150.3,82.6 149.9,82.6 149.7,82.5 
	149.6,82.5 149.5,82.5 149.4,82.4 149.3,82.4 149.2,82.4 147.7,82.1 147.4,82.1 147.2,82 146.9,82 146.8,82 145.4,81.8 145.4,81.9 
	145.4,81.9 145.4,81.9 145.3,81.9 145.1,81.9 145,81.9 144.7,81.8 144.6,81.8 144.5,81.8 144.2,81.6 144.2,81.6 143.9,81.6 
	143.8,81.6 143.7,81.6 143.7,81.6 143.4,81.5 142.5,81 142.5,81 142.5,81 141.8,80.6 140.4,80 138.9,79.3 138.6,79 137.4,77.7 
	137.2,77.4 136.7,76.8 136.1,76.3 135.4,75.4 135.2,75.2 134.8,74.7 134.8,74.7 134.5,74.3 134.4,74.2 134.2,74 134,73.9 
	133.9,73.8 133.6,73.1 133.5,72.7 133.4,72.5 133.2,72 133,71.8 132.8,71.5 132.7,71.4 132.5,71.1 132.4,70.9 132.3,70.9 
	132.3,70.8 132.2,70.6 132.1,70.3 132.1,70.1 132.1,70 132.2,69.7 132.2,69.6 132.3,69.5 132.5,69.3 132.6,69.3 133,69 133.2,68.8 
	133.6,68.6 133.9,68.3 134,68.2 134.1,68.1 134.1,67.8 134.2,67.4 134.1,67.1 134,66.7 133.9,66.4 133.8,66.2 133.6,65.7 
	133.4,65.4 133.2,65.2 133,65 132.8,64.8 132.5,64.6 132.4,64.4 131.7,64.2 131,63.9 130.7,63.8 130.5,63.8 130.1,63.7 129.6,63.6 
	128.5,63.5 128,63.3 127.9,63.2 127.8,63.1 127.7,62.9 127.6,62.8 127.6,62.7 127.5,62.5 127.5,62.3 127.6,61.9 127.7,61.7 
	127.8,61.5 127.9,61.2 128.1,60.9 128.3,60.6 128.5,60.3 128.5,60.1 128.6,60.1 128.6,59.8 128.6,59.7 128.6,59.6 128.6,59.5 
	128.6,59.5 128.5,59.3 128.3,59.2 128.1,59.1 127.7,59 127.4,58.8 127.3,58.6 127.3,58.6 127.3,58.6 127.3,58.1 127.2,57.4 
	127,56.7 126.9,56.7 126.7,56.3 126.5,56.1 126.4,56 126.3,55.9 125.6,55.4 125.4,55.2 125.3,55.1 125.2,54.9 125.1,54.6 
	125.1,54.6 125.2,54.2 125.2,54 125.3,53.8 125.3,53.6 125.5,53.3 125.5,53.1 125.5,52.8 125.5,52.4 125.5,52.2 125.5,51.7 
	125.5,51.4 125.4,50.8 125.2,49.9 125.1,49.3 125.1,48.7 125.1,48.6 125.1,48.6 125.9,48.6 125.9,48.6 126.2,48.6 126.3,48.6 
	126.6,48.7 126.8,48.9 127,49 127.7,49.5 128.3,49.8 128.6,50 128.8,50.1 129.5,50.5 129.9,50.6 130.2,50.6 130.3,50.6 130.5,50.5 
	130.6,50.6 130.8,50.7 131.3,51 131.5,51 131.6,51 131.9,50.9 132.6,50.8 132.6,50.8 133.2,50.9 133.3,50.9 133.4,51 133.6,51 
	133.6,51 133.7,51.1 134,51.2 134.2,51.2 134.4,51.2 134.7,51.1 134.8,50.9 134.9,50.8 135.1,50.2 135.1,50.1 135.2,50.2 
	135.6,50.2 135.6,50.1 136.1,49.5 136.1,49.4 136.1,49.4 136.2,49.4 136.1,49.7 135.5,51.4 135.2,52.3 135.1,52.6 134.9,53.1 
	134.3,53.1 134.1,53.5 134,53.7 134,53.9 134.2,54.1 134.3,54.1 134.1,54.8 134,55 134.1,55.1 134.1,55.1 134,55.3 134,55.4 
	133.9,55.5 133.9,55.6 133.9,56 133.8,56.3 133.8,56.4 133.8,56.4 133.9,56.4 134,56.4 134,56.3 134.2,55.8 134.5,55.3 134.5,55.2 
	134.5,55.1 134.6,55 134.7,54.9 134.9,54.7 135,54.7 135.1,54.6 135.1,54.5 135.2,54.4 135.5,54.3 135.7,54.2 136.1,54.2 
	136.1,54.2 136.1,54 135.5,53.8 135.5,53.8 136.1,54 136.1,53.6 136.1,53.5 136.2,53.4 136.2,53.4 136.4,53.2 136.6,53.1 136.6,53 
	135.9,52.8 136,52.6 136.7,52.9 136.7,52.8 136.8,52.4 136.1,52.2 136.2,52 137.6,52.6 138.3,50.7 138.4,50.7 137.7,52.6 
	137.8,52.6 139.7,53.5 140.2,53.7 140.5,53.9 140.9,54 141.4,54.2 142.3,54.6 143.3,55 144.2,55.1 145.7,55 145.7,55 145.8,56.1 
	145.8,56.3 145.8,56.4 146.2,56.4 146.2,56.4 146.4,56.4 146.4,56.5 146.5,56.5 146.5,56.2 146.4,56.2 146.4,56.2 146.6,56.2 
	146.6,56.6 146.2,56.6 146.2,56.5 145.8,56.5 145.8,56.7 146.2,57.2 146.4,57.6 146.4,57.8 146.4,58.1 146.4,58.2 146.4,58.2 
	146.8,58.2 147.1,58.2 147.1,57.9 147.1,57.5 147.1,56.9 147.1,56.2 147.1,54.5 147.2,54.5 148.5,54.5 148.6,54.5 148.6,55.4 
	149,55.4 149,54.6 149,54.4 150.4,54.4 151.2,54.4 152.2,54.4 152.7,54.4 152.8,54 152.8,53.1 152.8,53 153,52.8 153.2,52.7 
	153.2,52.7 153.4,52.6 153.6,52.5 155.2,51.8 155.5,51.7 155.7,51.7 155.7,51.7 156.6,51.3 156.8,51.2 157.1,51 157.2,50.8 
	157.3,50.1 157.3,49.6 156.3,49.6 155.7,49.5 155.7,49.5 155.5,49.5 154.4,49.5 154.2,49.5 154,49.5 153.7,49.2 153.5,49 153.4,49 
	153.2,48.9 152.7,48.6 152.6,48.6 152.5,48.4 152.2,47.3 152.1,47 152.1,46.7 152.1,46.4 152.3,46 152.4,45.3 152.4,45.2 
	152.5,43.9 152.7,42.6 152.8,41.1 153,39.4 153.1,38.3 153.2,37.3 153.7,36.5 154.3,36.3 155,36.2 155.5,36.2 156.1,36.1 
	156.8,36.1 157.2,36 157.9,36.4 158.1,36.5 158.3,36.6 158.6,36.9 158.6,36.9 159,37.2 159.6,37.3 160.5,37.9 160.9,38.9 
	160.7,40.5 160.3,42.4 160.3,43.9 160.1,45.4 160.1,45.5 160.2,46 160.3,46.2 160.5,46.8 160.6,47.4 160.6,47.8 160.5,48.2 
	160.4,48.8 160.4,49.2 160.4,49.4 160.4,49.6 160.3,49.7 160.1,49.7 160,49.8 160,49.9 160.1,50 160.2,50 160.4,50.1 160.4,50.2 
	160.4,50.3 160.3,50.3 159.9,50.4 159.7,50.5 159.7,50.6 159.6,50.8 159.5,51.3 159.4,51.9 159.5,52.6 159.6,54.1 159.7,54.8 
	159.8,55.5 160,55.4 160.5,55.4 160.5,55.4 162.1,55.2 162.4,54.7 162.5,54.6 162.7,54.6 162.8,54.7 162.9,54.9 163.5,55.1 
	164.3,55.1 164.7,55 165,54.8 165.1,54.7 165,54.5 164.9,53.9 164.6,51.8 164.4,50.9 164.2,49.2 163.8,47.1 163.5,45.5 163.3,44.6 
	163.3,44.5 163,42.3 162.9,41.7 162.7,40.9 162.8,40.9 163.5,40.8 163.5,40.8 164.3,40.6 164.6,40.6 164.9,42.1 166.5,41.8 
	166.6,42 164.9,42.3 165.3,44.8 166.7,44.5 167.1,47.1 167.1,47.1 167.1,47.5 167.2,47.5 167.8,47.4 168.4,47.3 168.4,47.2 
	168.5,47.2 168.5,47.3 169,47.2 169,47.1 169.1,47.1 169.1,47.2 169.3,47.2 169.6,47.1 169.6,46.8 169.6,46.5 169.4,46.5 168,38.3 
	168,38.2 168.3,38.2 168.3,38.2 168.7,38.1 168.7,38.2 168.8,38.3 168.9,38.9 169,39.4 169.1,40 169.2,40.7 169.3,41.3 169.6,43 
	169.8,44 169.8,44.2 169.9,44.4 170,44.9 170.3,46.1 170.5,47.4 170.8,48.8 170.9,49.7 171.2,51.4 171.6,53.5 171.6,53.7 
	171.7,54.2 171.8,54.2 172.4,57.8 172.4,57.8 172.5,58 172.5,58.1 172.5,58.7 172.4,58.8 172.4,58.9 172.4,59.2 172.4,59.7 
	172.4,60.2 172.5,61.6 172.6,61.8 172.4,61.8 172.2,61.7 172.2,61.6 172.2,61.4 172.1,61.2 172,61.1 171.9,61.1 171.8,61.1 
	171.7,61.3 171.7,61.5 171.7,61.9 171.8,62 171.9,62 172.6,62.2 173.1,62.3 173.2,62.3 173.3,62.5 173.4,63.1 173.5,64 173.6,64 
	173.6,64 173.6,64 "/>
</svg>
